PathFileType  4	(X/Y/Z) C:\Users\antoi\Documents\MyRepositories\mobilecap\ResultsAnalysis
DataRate	CameraRate	NumFrames	NumMarkers	Units	OrigDataRate	OrigDataStartFrame	OrigNumFrames
100.0	100.0	4	51	mm	100.0	158	1257
Frame#	Time	r_knee			r_shank_antsup			r_ankle			r_calc			r_5meta			r_toe			L_knee			L_shank_antsup			L_ankle			L_calc			L_5meta			L_toe			r_sh2			r_sh3			r_sh4			L_sh2			L_sh3			r_thigh1			r_thigh2			r_thigh3			r_thigh4			r_thigh5			L_thigh1			L_thigh2			L_thigh3			L_thigh4			r.ASIS			r.PSIS			L.ASIS			L.PSIS			C7			R_Shoulder			L_Shoulder			R_Sternum			L_Sternum			R_humerus			R_elbow_med			R_elbow_lat			R_forearm			R_wrist_radius			R_wrist_ulna			L_humerus			L_elbow_med			L_elbow_lat			L_forearm			L_wrist_radius			L_wrist_ulna			R_HJC			L_HJC			R_HJC_reg			L_HJC_reg			
		X1	Y1	Z1	X2	Y2	Z2	X3	Y3	Z3	X4	Y4	Z4	X5	Y5	Z5	X6	Y6	Z6	X7	Y7	Z7	X8	Y8	Z8	X9	Y9	Z9	X10	Y10	Z10	X11	Y11	Z11	X12	Y12	Z12	X13	Y13	Z13	X14	Y14	Z14	X15	Y15	Z15	X16	Y16	Z16	X17	Y17	Z17	X18	Y18	Z18	X19	Y19	Z19	X20	Y20	Z20	X21	Y21	Z21	X22	Y22	Z22	X23	Y23	Z23	X24	Y24	Z24	X25	Y25	Z25	X26	Y26	Z26	X27	Y27	Z27	X28	Y28	Z28	X29	Y29	Z29	X30	Y30	Z30	X31	Y31	Z31	X32	Y32	Z32	X33	Y33	Z33	X34	Y34	Z34	X35	Y35	Z35	X36	Y36	Z36	X37	Y37	Z37	X38	Y38	Z38	X39	Y39	Z39	X40	Y40	Z40	X41	Y41	Z41	X42	Y42	Z42	X43	Y43	Z43	X44	Y44	Z44	X45	Y45	Z45	X46	Y46	Z46	X47	Y47	Z47	X48	Y48	Z48	X49	Y49	Z49	X50	Y50	Z50	X51	Y51	Z51	

158	1.57000000	-170.18864	448.85621	-389.90830	-167.88963	374.53127	-370.35152	-266.17239	90.68738	-420.73443	-335.84264	55.22044	-460.14261	-167.98773	45.43467	-386.47580	-122.96136	65.37448	-440.51522	-211.53502	463.77577	-789.89129	-186.47889	402.71250	-817.83766	-266.22083	101.70077	-868.43838	-335.49014	60.62160	-823.16168	-177.80364	43.42335	-905.97152	-124.88505	64.75565	-854.20979	-196.01001	264.70241	-371.60933	-240.15474	392.10690	-381.24153	-275.55150	282.21539	-386.02594	-273.72087	424.27985	-814.77271	-290.54922	307.93291	-849.08035	-223.84466	752.26882	-379.87651	-172.68767	651.37954	-377.45226	-206.77504	610.28703	-335.21538	-306.50817	715.11812	-312.15972	-263.76362	607.47178	-330.23750	-245.92586	734.05017	-706.23741	-198.64054	611.87834	-749.96250	-356.80978	698.93153	-718.58318	-300.20747	575.18003	-760.11559	-247.26013	851.47613	-374.19618	-414.02722	918.06018	-457.51762	-237.73031	845.20100	-628.23152	-410.37576	912.49695	-564.36471	-211.94107	1318.80985	-440.36226	-166.58229	1243.64641	-289.71253	-124.07215	1276.39394	-595.60260	-102.96424	1221.24369	-415.14320	-96.24759	1227.42385	-457.53008	-183.80849	1031.81341	-174.47999	-215.11938	914.85312	-211.87940	-198.76616	955.24806	-142.03764	-97.48538	991.15328	-182.66019	-2.33047	1021.23025	-239.57107	12.50828	980.14759	-232.14955	-98.12457	1147.95487	-647.48179	-198.30939	944.11046	-646.74678	-148.14627	948.55343	-700.15901	-65.77232	954.62073	-616.67153	-10.10088	956.76058	-509.37642	0.40216	921.14223	-513.75959	-330.32469	797.00114	-403.97558	-317.38259	793.16837	-603.81288	-328.77667	793.30642	-409.90452	-323.05241	784.58471	-577.41219	
159	1.58000000	-173.14573	449.87893	-389.80093	-170.96539	375.54937	-370.41859	-266.41460	90.71074	-420.76569	-335.86794	55.18141	-460.12331	-168.00956	45.50861	-386.43244	-123.06715	65.51659	-440.39999	-213.76006	464.10979	-788.35309	-188.70491	403.37190	-816.05260	-266.27057	102.01113	-868.42072	-335.42601	60.79024	-823.10826	-177.75353	43.42036	-905.96300	-124.81252	64.69806	-854.24552	-198.13673	265.46865	-371.66920	-243.27185	392.58510	-381.34115	-277.88759	282.69687	-386.18354	-275.98253	424.47778	-813.36649	-292.09534	308.00237	-847.95824	-221.45743	754.10102	-379.09041	-172.44752	652.56781	-377.52591	-207.05951	612.10450	-335.15551	-304.97204	718.57792	-312.21130	-264.13960	610.14663	-330.35597	-243.28666	735.37736	-706.24595	-198.34916	612.00894	-748.99524	-354.92623	701.95096	-718.08994	-300.43481	577.01162	-758.75551	-244.87174	856.07049	-373.81915	-411.70475	921.02766	-458.12961	-234.35230	848.73559	-628.01345	-407.73088	915.41934	-565.15802	-214.49484	1323.64287	-439.57054	-168.79077	1249.10902	-288.84767	-126.38411	1282.11805	-595.02368	-104.84791	1227.10901	-414.54814	-98.11576	1233.41702	-456.79108	-186.24018	1037.20526	-173.57214	-217.89470	920.14139	-210.91873	-201.18877	960.59968	-141.02985	-99.74819	995.76078	-181.92195	-4.49256	1025.19137	-239.05023	10.14553	984.08006	-231.75346	-100.30344	1153.74621	-647.62511	-199.16872	949.15734	-643.67700	-150.31668	954.50584	-700.28017	-67.70213	960.47910	-616.86555	-11.86650	962.57078	-509.68575	-1.39519	926.86542	-513.92270	-327.50014	800.89187	-403.85458	-313.75758	796.35284	-603.62300	-325.67861	796.62965	-409.71041	-319.45537	787.84618	-577.34747	
160	1.59000000	-176.01666	451.03802	-389.56011	-173.86961	376.58990	-370.55445	-266.56511	90.73239	-420.74614	-335.90175	55.17669	-460.13374	-168.00308	45.52914	-386.37561	-123.12973	65.55670	-440.33650	-215.94634	464.35723	-786.46921	-190.88410	404.02186	-814.36770	-266.32000	102.15668	-868.24953	-335.45292	60.86853	-823.02419	-177.72893	43.41949	-905.95620	-124.74683	64.69602	-854.28646	-200.33634	266.26417	-371.77024	-246.26417	393.04317	-381.39431	-280.10773	282.72828	-386.22297	-278.24075	424.56846	-811.86691	-293.71398	308.11429	-846.60485	-219.00344	756.16960	-378.85753	-172.16656	653.70751	-377.86670	-207.32495	613.81206	-335.24983	-303.29834	721.96554	-312.18970	-264.36314	612.87556	-330.24596	-240.64773	736.62031	-706.38309	-198.11092	612.05806	-748.01873	-353.08565	704.90031	-717.83149	-300.72907	578.73474	-757.45666	-242.27796	860.30117	-373.73236	-409.39693	923.83444	-458.68939	-230.88948	851.99776	-627.84768	-405.12925	918.10000	-565.93418	-217.00073	1328.33745	-438.90113	-170.87264	1254.13625	-288.02468	-128.77308	1287.63207	-594.47874	-106.76636	1232.66518	-413.93954	-100.02800	1239.03786	-456.02035	-188.46706	1042.26094	-172.65753	-220.69464	925.28607	-209.68128	-203.47517	965.64338	-139.96945	-101.84794	1000.20803	-181.14295	-6.59537	1029.00388	-238.60048	7.88216	987.91408	-231.26637	-102.36229	1159.33530	-647.70241	-200.54058	954.54769	-643.18790	-152.30880	960.14349	-700.41139	-69.53161	965.97080	-616.90168	-13.50042	968.21071	-510.02782	-3.05181	932.42722	-514.08243	-324.56705	804.49687	-403.82433	-310.16820	799.31009	-603.53092	-322.47089	799.85730	-409.70825	-315.80151	790.89614	-577.31056	
161	1.60000000	-178.87161	452.14731	-389.57804	-176.64486	377.63025	-370.56574	-266.65515	90.69199	-420.77624	-335.91255	55.20960	-460.15346	-167.99090	45.49631	-386.36217	-123.11702	65.50608	-440.34083	-218.03125	464.60791	-784.64053	-192.99737	404.65655	-812.79878	-266.34118	102.19413	-868.02993	-335.43260	60.90147	-822.99845	-177.72819	43.42052	-905.95510	-124.72060	64.71874	-854.31273	-202.26872	267.14435	-371.73455	-249.24425	393.47942	-381.42974	-282.16128	282.52131	-386.29460	-280.52802	424.52382	-810.34447	-295.03411	308.37628	-845.50346	-216.88726	758.21753	-379.15964	-171.64156	654.73336	-378.38732	-207.50523	615.57872	-335.43717	-301.45070	725.29279	-312.08244	-264.40149	615.56013	-330.02793	-238.16104	737.62329	-706.30419	-197.95544	611.99395	-747.09012	-351.33102	707.63377	-717.40906	-301.15896	580.39410	-756.22861	-239.59029	864.28581	-373.80046	-407.08803	926.44643	-459.32036	-227.72893	855.29932	-627.97694	-402.67478	920.41815	-566.48215	-219.46643	1332.85691	-438.31887	-172.92362	1258.74423	-287.41759	-131.11507	1292.81381	-593.76166	-108.66055	1237.87401	-413.22826	-101.96483	1244.26015	-455.35703	-190.46732	1046.91840	-171.75831	-223.18537	930.11447	-208.38849	-205.59426	970.34123	-139.00664	-103.85594	1004.41636	-180.41693	-8.67036	1032.75779	-238.07345	5.65905	991.55413	-230.71617	-104.30435	1164.65672	-647.63181	-202.15648	959.74990	-643.43178	-154.16520	965.50421	-700.66319	-71.18300	971.32922	-617.19859	-14.91729	973.64293	-510.37515	-4.55874	937.88723	-514.44406	-321.49555	807.84612	-403.91820	-306.74097	802.15537	-603.58567	-319.30142	803.18846	-409.68762	-312.39772	793.75676	-577.32339	
